<svg width="97" height="77" viewBox="0 0 97 77" fill="none" xmlns="http://www.w3.org/2000/svg">
<g filter="url(#filter0_d_353_2389)">
<path d="M8 16C8 11.5817 11.5817 8 16 8L81 8C85.4183 8 89 11.5817 89 16V49.2613C89 53.6796 85.4183 57.2613 81 57.2613H66.2039C59.3752 57.2613 53.0675 60.9117 49.6651 66.8325L49.4733 67.1664C48.7863 68.3618 47.0387 68.2912 46.4505 67.0443C43.6327 61.0718 37.6217 57.2613 31.0178 57.2613H16C11.5817 57.2613 8 53.6796 8 49.2613L8 16Z" fill="white"/>
<path d="M48.5001 44.4476C48.5001 44.4476 44.4676 41.7575 42.2114 39.3222C39.1998 36.0716 37.4199 33.8952 37.4199 30.2772C37.4199 26.6593 39.8156 23.9458 42.8103 23.9458C47.9829 23.9458 48.4649 28.2186 48.5001 29.3838C48.5354 28.2186 49.0173 23.9458 54.1899 23.9458C57.1846 23.9458 59.5803 26.6593 59.5803 30.2772C59.5803 33.8952 57.7902 36.3082 54.7889 39.3222C52.6681 41.4518 48.5001 44.4476 48.5001 44.4476Z" fill="#EE518A"/>
</g>
<defs>
<filter id="filter0_d_353_2389" x="0" y="0" width="97" height="76.0227" filterUnits="userSpaceOnUse" color-interpolation-filters="sRGB">
<feFlood flood-opacity="0" result="BackgroundImageFix"/>
<feColorMatrix in="SourceAlpha" type="matrix" values="0 0 0 0 0 0 0 0 0 0 0 0 0 0 0 0 0 0 127 0" result="hardAlpha"/>
<feOffset/>
<feGaussianBlur stdDeviation="4"/>
<feComposite in2="hardAlpha" operator="out"/>
<feColorMatrix type="matrix" values="0 0 0 0 0.0823529 0 0 0 0 0.0823529 0 0 0 0 0.0823529 0 0 0 0.05 0"/>
<feBlend mode="normal" in2="BackgroundImageFix" result="effect1_dropShadow_353_2389"/>
<feBlend mode="normal" in="SourceGraphic" in2="effect1_dropShadow_353_2389" result="shape"/>
</filter>
</defs>
</svg>
