<svg width="32" height="32" viewBox="0 0 32 32" fill="none" xmlns="http://www.w3.org/2000/svg">
<g clip-path="url(#clip0_690_5291)">
<path d="M16 15.2667C17.5243 15.2667 18.76 14.031 18.76 12.5067C18.76 10.9824 17.5243 9.74667 16 9.74667C14.4757 9.74667 13.24 10.9824 13.24 12.5067C13.24 14.031 14.4757 15.2667 16 15.2667Z" fill="#EE518A"/>
<path fill-rule="evenodd" clip-rule="evenodd" d="M16 10.7467C15.028 10.7467 14.24 11.5347 14.24 12.5067C14.24 13.4787 15.028 14.2667 16 14.2667C16.972 14.2667 17.76 13.4787 17.76 12.5067C17.76 11.5347 16.972 10.7467 16 10.7467ZM12.24 12.5067C12.24 10.4301 13.9234 8.74667 16 8.74667C18.0766 8.74667 19.76 10.4301 19.76 12.5067C19.76 14.5833 18.0766 16.2667 16 16.2667C13.9234 16.2667 12.24 14.5833 12.24 12.5067Z" fill="#EE518A"/>
<path fill-rule="evenodd" clip-rule="evenodd" d="M16.0001 4.66667C9.74085 4.66667 4.66675 9.74078 4.66675 16C4.66675 22.2592 9.74085 27.3333 16.0001 27.3333C22.2593 27.3333 27.3334 22.2592 27.3334 16C27.3334 9.74078 22.2593 4.66667 16.0001 4.66667ZM2.66675 16C2.66675 8.63621 8.63628 2.66667 16.0001 2.66667C23.3639 2.66667 29.3334 8.63621 29.3334 16C29.3334 23.3638 23.3639 29.3333 16.0001 29.3333C8.63628 29.3333 2.66675 23.3638 2.66675 16Z" fill="#EE518A"/>
<path d="M16 26.28C18.6674 26.2793 21.2301 25.2418 23.1467 23.3867C23.2871 23.2493 23.3845 23.0741 23.4271 22.8823C23.4697 22.6906 23.4557 22.4906 23.3867 22.3067C22.8155 20.8105 21.8034 19.523 20.4843 18.6147C19.1653 17.7064 17.6016 17.22 16 17.22C14.3985 17.22 12.8347 17.7064 11.5157 18.6147C10.1967 19.523 9.18455 20.8105 8.61335 22.3067C8.54438 22.4906 8.53035 22.6906 8.57296 22.8823C8.61557 23.0741 8.71299 23.2493 8.85336 23.3867C10.77 25.2418 13.3326 26.2793 16 26.28Z" fill="#EE518A"/>
</g>
<defs>
<clipPath id="clip0_690_5291">
<rect width="26.6667" height="26.6667" fill="white" transform="translate(2.66675 2.66667)"/>
</clipPath>
</defs>
</svg>
