<svg width="22" height="25" viewBox="0 0 22 25" fill="none" xmlns="http://www.w3.org/2000/svg">
<g clip-path="url(#clip0_465_1018)">
<path fill-rule="evenodd" clip-rule="evenodd" d="M12.707 2.25139C11.0097 1.91376 9.25037 2.08704 7.65152 2.74931C6.05267 3.41158 4.6861 4.53309 3.72464 5.97202C2.76318 7.41095 2.25 9.10267 2.25 10.8333C2.25 11.3165 1.85825 11.7083 1.375 11.7083C0.891751 11.7083 0.5 11.3165 0.5 10.8333C0.5 8.75655 1.11581 6.72649 2.26957 4.99977C3.42332 3.27305 5.0632 1.92724 6.98182 1.13252C8.90045 0.337802 11.0116 0.129866 13.0484 0.535011C15.0852 0.940156 16.9562 1.94018 18.4246 3.40864C19.8931 4.87709 20.8931 6.74801 21.2982 8.78481C21.7034 10.8216 21.4955 12.9328 20.7007 14.8514C19.906 16.7701 18.5602 18.4099 16.8335 19.5637C15.1068 20.7174 13.0767 21.3333 11 21.3333C10.5168 21.3333 10.125 20.9415 10.125 20.4583C10.125 19.975 10.5168 19.5833 11 19.5833C12.7306 19.5833 14.4223 19.0701 15.8612 18.1086C17.3002 17.1472 18.4217 15.7806 19.0839 14.1817C19.7462 12.5829 19.9195 10.8236 19.5819 9.12622C19.2442 7.42888 18.4109 5.86978 17.1872 4.64607C15.9635 3.42236 14.4044 2.58901 12.707 2.25139Z" fill="#EE518A"/>
<path fill-rule="evenodd" clip-rule="evenodd" d="M12.7854 16.9228C13.1271 17.2645 13.1271 17.8185 12.7854 18.1602L10.4874 20.4582L12.7854 22.7561C13.1271 23.0978 13.1271 23.6518 12.7854 23.9936C12.4437 24.3353 11.8897 24.3353 11.5479 23.9936L8.63128 21.0769C8.28957 20.7352 8.28957 20.1812 8.63128 19.8395L11.5479 16.9228C11.8897 16.5811 12.4437 16.5811 12.7854 16.9228Z" fill="#EE518A"/>
</g>
<defs>
<clipPath id="clip0_465_1018">
<rect width="21" height="23.9167" fill="white" transform="translate(0.5 0.333252)"/>
</clipPath>
</defs>
</svg>
