<svg width="24" height="23" viewBox="0 0 24 23" fill="none" xmlns="http://www.w3.org/2000/svg">
<path fill-rule="evenodd" clip-rule="evenodd" d="M7.91291 6.72918L0.5 14.1421L8.98528 22.6274L16.3659 15.2467C15.6907 14.4404 15.6282 13.2949 16.1784 12.4258L15.3243 11.5717L16.0314 10.8646L16.877 11.7101C17.7516 11.1261 18.9252 11.178 19.7467 11.866L23.1274 8.48524L14.6421 -4.55379e-05L11.2291 3.41297C11.7418 4.2115 11.734 5.24741 11.2056 6.03869L12.2879 7.12092L11.5807 7.82802L10.49 6.7373C9.70528 7.23411 8.6952 7.2314 7.91291 6.72918ZM14.0765 10.3238L12.8037 9.05104L13.5108 8.34394L14.7836 9.61673L14.0765 10.3238Z" fill="#EE518A"/>
</svg>
