<svg width="24" height="24" viewBox="0 0 24 24" fill="none" xmlns="http://www.w3.org/2000/svg">
<g clip-path="url(#clip0_303_106)">
<path fill-rule="evenodd" clip-rule="evenodd" d="M5.63569 5.36383C5.92858 5.07093 6.40345 5.07093 6.69635 5.36383L18.3636 17.0311C18.6565 17.324 18.6565 17.7989 18.3636 18.0917C18.0707 18.3846 17.5958 18.3846 17.3029 18.0917L5.63569 6.42449C5.34279 6.13159 5.34279 5.65672 5.63569 5.36383Z" fill="#19191B"/>
<path fill-rule="evenodd" clip-rule="evenodd" d="M18.3643 5.36383C18.6572 5.65672 18.6572 6.13159 18.3643 6.42449L6.69705 18.0917C6.40416 18.3846 5.92929 18.3846 5.63639 18.0917C5.3435 17.7989 5.3435 17.324 5.63639 17.0311L17.3037 5.36383C17.5965 5.07093 18.0714 5.07093 18.3643 5.36383Z" fill="#19191B"/>
</g>
<defs>
<clipPath id="clip0_303_106">
<rect width="18" height="18" fill="white" transform="translate(12 -1) rotate(45)"/>
</clipPath>
</defs>
</svg>
